<svg id="Layer_1" enable-background="new 0 0 64 64" height="512" viewBox="0 0 64 64" width="512" xmlns="http://www.w3.org/2000/svg"><path d="m38.1 23.4 10 5c.6.3 1.2.3 1.8 0l10-5c.7-.3 1.1-1 1.1-1.8v-11.5c0-.8-.4-1.5-1.1-1.8l-10-5c-.6-.3-1.2-.3-1.8 0l-10 5c-.7.3-1.1 1-1.1 1.8v11.5c0 .8.4 1.5 1.1 1.8z" fill="#087f5d"/><path d="m49 14.9 11.7-5.9c-.2-.3-.5-.6-.8-.7l-10-5c-.6-.3-1.2-.3-1.8 0l-10 5c-.3.2-.6.4-.8.7z" fill="#44d381"/><path d="m37.3 9c-.2.4-.3.7-.3 1.1v11.5c0 .8.4 1.5 1.1 1.8l10 5c.3.1.6.2.9.2v-13.7z" fill="#06c15a"/><path d="m4.1 23.4 10 5c.6.3 1.2.3 1.8 0l10-5c.7-.3 1.1-1 1.1-1.8v-11.5c0-.8-.4-1.5-1.1-1.8l-10-5c-.6-.3-1.2-.3-1.8 0l-10 5c-.7.4-1.1 1.1-1.1 1.8v11.5c0 .8.4 1.5 1.1 1.8z" fill="#087f5d"/><path d="m15 14.9 11.7-5.9c-.2-.3-.5-.6-.8-.7l-10-5c-.6-.3-1.2-.3-1.8 0l-10 5c-.3.2-.6.4-.8.7z" fill="#44d381"/><path d="m3.3 9c-.2.4-.3.7-.3 1.1v11.5c0 .8.4 1.5 1.1 1.8l10 5c.3.1.6.2.9.2v-13.7z" fill="#06c15a"/><path d="m38.1 55.4 10 5c.6.3 1.2.3 1.8 0l10-5c.7-.3 1.1-1 1.1-1.8v-11.5c0-.8-.4-1.5-1.1-1.8l-10-5c-.6-.3-1.2-.3-1.8 0l-10 5c-.7.3-1.1 1-1.1 1.8v11.5c0 .8.4 1.5 1.1 1.8z" fill="#066b93"/><path d="m51 22.1c0-.7-.4-1.4-1.1-1.8l-17-8.9c-.6-.3-1.3-.3-1.9 0l-17 8.9c-.7.3-1.1 1-1.1 1.8v19.6c0 .7.4 1.4 1.1 1.8l17 8.9c.6.3 1.3.3 1.9 0l17-8.9c.7-.3 1.1-1 1.1-1.8z" fill="#06688f"/><path d="m31.1 11.4-17 8.9c-.3.2-.6.4-.8.7l17.8 9.4c.6.3 1.3.3 1.9 0l17.7-9.4c-.2-.3-.5-.6-.8-.7l-17-8.9c-.6-.3-1.2-.3-1.8 0z" fill="#0778a6"/><path d="m14.3 21.6-1-.5c-.2.3-.3.7-.3 1v19.6c0 .7.4 1.4 1.1 1.8l17 8.9c.3.2.6.2.9.2v-22c-.3 0-.6-.1-.9-.2z" fill="#0888ba"/><path d="m38.1 55.4 10 5c.6.3 1.2.3 1.8 0l10-5c.7-.3 1.1-1 1.1-1.8v-11.5c0-.8-.4-1.5-1.1-1.8l-10-5c-.6-.3-1.2-.3-1.8 0l-10 5c-.7.3-1.1 1-1.1 1.8v11.5c0 .8.4 1.5 1.1 1.8z" fill="#087f5d"/><path d="m49 46.9 11.7-5.9c-.2-.3-.5-.6-.8-.7l-10-5c-.6-.3-1.2-.3-1.8 0l-10 5c-.3.2-.6.4-.8.7z" fill="#44d381"/><path d="m37.3 41c-.2.3-.3.7-.3 1.1v11.5c0 .8.4 1.5 1.1 1.8l10 5c.3.1.6.2.9.2v-13.7z" fill="#06c15a"/><path d="m4.1 55.4 10 5c.6.3 1.2.3 1.8 0l10-5c.7-.3 1.1-1 1.1-1.8v-11.5c0-.8-.4-1.5-1.1-1.8l-10-5c-.6-.3-1.2-.3-1.8 0l-10 5c-.7.3-1.1 1-1.1 1.8v11.5c0 .8.4 1.5 1.1 1.8z" fill="#087f5d"/><path d="m15 46.9 11.7-5.9c-.2-.3-.5-.6-.8-.7l-10-5c-.6-.3-1.2-.3-1.8 0l-10 5c-.3.2-.6.4-.8.7z" fill="#44d381"/><path d="m3.3 41c-.2.4-.3.7-.3 1.1v11.5c0 .8.4 1.5 1.1 1.8l10 5c.3.1.6.2.9.2v-13.7z" fill="#06c15a"/><path d="m47 40.9h-2v-7.1c0-.4-.2-.7-.5-.9l-3.9-2.1.9-1.8 3.9 2.1c1 .5 1.6 1.5 1.6 2.7z" fill="#e8ce0c"/><path d="m19 40.9h-2v-7.1c0-1.1.6-2.1 1.6-2.7l3.9-2.1.9 1.8-3.9 2.1c-.3.2-.5.5-.5.9z" fill="#f9e310"/><path d="m60.3 7.4-10-5c-.8-.4-1.8-.4-2.7 0l-10 5c-1 .5-1.6 1.6-1.6 2.7v1.7l-2.6-1.4c-.9-.5-1.9-.5-2.8 0l-2.6 1.5v-1.7c0-1.1-.6-2.2-1.7-2.7l-10-5c-.8-.4-1.8-.4-2.7 0l-10 5c-1 .4-1.6 1.5-1.6 2.6v11.5c0 1.1.6 2.2 1.7 2.7l8.3 4.2v6.8l-8.3 4.2c-1.1.4-1.7 1.5-1.7 2.6v11.5c0 1.1.6 2.2 1.7 2.7l10 5c.8.4 1.8.4 2.7 0l10-5c1-.5 1.7-1.5 1.7-2.7v-1.7l2.6 1.4c.9.5 1.9.5 2.8 0l2.6-1.4v1.7c0 1.1.6 2.2 1.7 2.7l10 5c.8.4 1.8.4 2.7 0l10-5c1-.5 1.7-1.5 1.7-2.7v-11.5c0-1.1-.6-2.2-1.7-2.7l-8.5-4.1v-6.8l8.3-4.2c1-.5 1.7-1.5 1.7-2.7v-11.5c0-1.1-.6-2.2-1.7-2.7zm-11.7-3.2c.3-.1.6-.1.9 0l9.3 4.7-9.3 4.7c-.3.1-.6.1-.9 0l-9.3-4.7zm-10.6 6.3 9.7 4.8c.1 0 .2.1.3.1v2.7l-10-5.3zm-23.4-6.3c.3-.1.6-.1.9 0l9.3 4.7-9.3 4.7c-.3.1-.6.1-.9 0l-9.4-4.7zm11.4 6.3v2.4l-10 5.3v-2.7c.1 0 .2-.1.3-.1zm-21.4 12c-.4-.1-.6-.5-.6-.9v-11.1l9.7 4.8c.1 0 .2.1.3.1v3.8l-.4.2c-1 .6-1.6 1.6-1.6 2.7v4.2zm9.4 36.8-9.4-4.7c-.4-.2-.6-.6-.6-1v-11.1l10 5zm-8.8-18.4 9.3-4.7c.1-.1.3-.1.4-.1.2 0 .3 0 .4.1l1.7.8v3.9h2v-2.9l5.8 2.9-9.8 4.9zm20.8 12.7c0 .4-.2.7-.6.9l-9.4 4.8v-11.8l10-5zm5-2.4-3-1.6v-7.5c0-1.1-.6-2.2-1.7-2.7l-7.3-3.6v-1.9c0-.4.2-.7.5-.9l3.9-2.1-.9-1.8-3.9 2.1c-1 .5-1.6 1.5-1.6 2.7v.9l-.7-.3c-.7-.4-1.6-.4-2.3-.1v-11.9l16.6 8.7c.1.1.3.1.4.2zm.5-21.7-16.4-8.6 16.4-8.6c.3-.2.6-.2.9 0l16.4 8.6-16.4 8.6c-.2.2-.6.2-.9 0zm6.2 9.9c-1 .5-1.7 1.5-1.7 2.7v7.5l-3 1.6v-19.8c.1 0 .3-.1.4-.2l16.6-8.7v11.8c-.8-.3-1.6-.2-2.3.1l-.7.4v-.9c0-1.1-.6-2.1-1.6-2.7l-3.9-2.1-.9 1.8 3.9 2.1c.3.2.5.5.5.9v1.9zm10.3 19.9-9.4-4.7c-.4-.2-.6-.6-.6-1v-11.1l10 5zm12-5.7c0 .4-.2.7-.6.9l-9.4 4.8v-11.8l10-5zm-1.2-12.7-9.8 4.9-9.8-4.9 5.8-2.9v2.9h2v-3.9l1.6-.8c.1-.1.3-.1.4-.1.2 0 .3 0 .4.1zm1.2-19.3c0 .4-.2.7-.6.9l-7.4 3.8v-4.2c0-1.1-.6-2.1-1.6-2.7l-.4-.2v-3.8c.1 0 .2-.1.3-.1l9.7-4.8z"/></svg>