<!-- <svg height="426.66667pt" viewBox="0 0 426.66667 426.66667" width="426.66667pt" xmlns="http://www.w3.org/2000/svg"><path d="m405.332031 192h-170.664062v-170.667969c0-11.773437-9.558594-21.332031-21.335938-21.332031-11.773437 0-21.332031 9.558594-21.332031 21.332031v170.667969h-170.667969c-11.773437 0-21.332031 9.558594-21.332031 21.332031 0 11.777344 9.558594 21.335938 21.332031 21.335938h170.667969v170.664062c0 11.777344 9.558594 21.335938 21.332031 21.335938 11.777344 0 21.335938-9.558594 21.335938-21.335938v-170.664062h170.664062c11.777344 0 21.335938-9.558594 21.335938-21.335938 0-11.773437-9.558594-21.332031-21.335938-21.332031zm0 0"/></svg> -->
<svg viewBox="0 0 400 400" width="65" height="50" xmlns="http://www.w3.org/2000/svg"><g fill="none" stroke="purple"><path stroke-width="10" d="m0 250 l10 -120 l20 60 l30 -20 l40 20 l50 -80 l60 20 l70 10 l80 -90 l90 190"/></g></svg>